<svg id="visual" viewBox="0 0 900 600" width="900" height="600" xmlns="http://www.w3.org/2000/svg" xmlns:xlink="http://www.w3.org/1999/xlink" version="1.1"><path d="M0 202L21.5 199.8C43 197.7 86 193.3 128.8 196.7C171.7 200 214.3 211 257.2 207.8C300 204.7 343 187.3 385.8 179.7C428.7 172 471.3 174 514.2 180.3C557 186.7 600 197.3 642.8 195.8C685.7 194.3 728.3 180.7 771.2 184C814 187.3 857 207.7 878.5 217.8L900 228L900 0L878.5 0C857 0 814 0 771.2 0C728.3 0 685.7 0 642.8 0C600 0 557 0 514.2 0C471.3 0 428.7 0 385.8 0C343 0 300 0 257.2 0C214.3 0 171.7 0 128.8 0C86 0 43 0 21.5 0L0 0Z" fill="#421a92"></path><path d="M0 134L21.5 142.8C43 151.7 86 169.3 128.8 173.2C171.7 177 214.3 167 257.2 166.3C300 165.7 343 174.3 385.8 178.8C428.7 183.3 471.3 183.7 514.2 173.7C557 163.7 600 143.3 642.8 146.3C685.7 149.3 728.3 175.7 771.2 183.3C814 191 857 180 878.5 174.5L900 169L900 0L878.5 0C857 0 814 0 771.2 0C728.3 0 685.7 0 642.8 0C600 0 557 0 514.2 0C471.3 0 428.7 0 385.8 0C343 0 300 0 257.2 0C214.3 0 171.7 0 128.8 0C86 0 43 0 21.5 0L0 0Z" fill="#8e0e8a"></path><path d="M0 138L21.5 134.7C43 131.3 86 124.7 128.8 127.2C171.7 129.7 214.3 141.3 257.2 145.3C300 149.3 343 145.7 385.8 137.5C428.7 129.3 471.3 116.7 514.2 118C557 119.3 600 134.7 642.8 141.2C685.7 147.7 728.3 145.3 771.2 145C814 144.7 857 146.3 878.5 147.2L900 148L900 0L878.5 0C857 0 814 0 771.2 0C728.3 0 685.7 0 642.8 0C600 0 557 0 514.2 0C471.3 0 428.7 0 385.8 0C343 0 300 0 257.2 0C214.3 0 171.7 0 128.8 0C86 0 43 0 21.5 0L0 0Z" fill="#c0227d"></path><path d="M0 61L21.5 68.2C43 75.3 86 89.7 128.8 91.7C171.7 93.7 214.3 83.3 257.2 80.5C300 77.7 343 82.3 385.8 80.2C428.7 78 471.3 69 514.2 73.8C557 78.7 600 97.3 642.8 105.5C685.7 113.7 728.3 111.3 771.2 103.7C814 96 857 83 878.5 76.5L900 70L900 0L878.5 0C857 0 814 0 771.2 0C728.3 0 685.7 0 642.8 0C600 0 557 0 514.2 0C471.3 0 428.7 0 385.8 0C343 0 300 0 257.2 0C214.3 0 171.7 0 128.8 0C86 0 43 0 21.5 0L0 0Z" fill="#e34871"></path><path d="M0 73L21.5 65.5C43 58 86 43 128.8 40.3C171.7 37.7 214.3 47.3 257.2 47.3C300 47.3 343 37.7 385.8 39.2C428.7 40.7 471.3 53.3 514.2 57.8C557 62.3 600 58.7 642.8 55.2C685.7 51.7 728.3 48.3 771.2 49.7C814 51 857 57 878.5 60L900 63L900 0L878.5 0C857 0 814 0 771.2 0C728.3 0 685.7 0 642.8 0C600 0 557 0 514.2 0C471.3 0 428.7 0 385.8 0C343 0 300 0 257.2 0C214.3 0 171.7 0 128.8 0C86 0 43 0 21.5 0L0 0Z" fill="#fa7268"></path></svg>