<svg id="visual" viewBox="0 0 900 450" width="900" height="450" xmlns="http://www.w3.org/2000/svg" xmlns:xlink="http://www.w3.org/1999/xlink" version="1.1"><rect x="0" y="0" width="900" height="450" fill="#001220"></rect><path d="M0 165L21.5 159.5C43 154 86 143 128.8 144.7C171.7 146.3 214.3 160.7 257.2 169.2C300 177.7 343 180.3 385.8 173.7C428.7 167 471.3 151 514.2 146.2C557 141.3 600 147.7 642.8 155.8C685.7 164 728.3 174 771.2 177C814 180 857 176 878.5 174L900 172L900 0L878.5 0C857 0 814 0 771.2 0C728.3 0 685.7 0 642.8 0C600 0 557 0 514.2 0C471.3 0 428.7 0 385.8 0C343 0 300 0 257.2 0C214.3 0 171.7 0 128.8 0C86 0 43 0 21.5 0L0 0Z" fill="#fa7268"></path><path d="M0 148L21.5 140.7C43 133.3 86 118.7 128.8 119.5C171.7 120.3 214.3 136.7 257.2 134.3C300 132 343 111 385.8 108.3C428.7 105.7 471.3 121.3 514.2 126.2C557 131 600 125 642.8 117C685.7 109 728.3 99 771.2 101C814 103 857 117 878.5 124L900 131L900 0L878.5 0C857 0 814 0 771.2 0C728.3 0 685.7 0 642.8 0C600 0 557 0 514.2 0C471.3 0 428.7 0 385.8 0C343 0 300 0 257.2 0C214.3 0 171.7 0 128.8 0C86 0 43 0 21.5 0L0 0Z" fill="#ef5f67"></path><path d="M0 74L21.5 73.3C43 72.7 86 71.3 128.8 72.7C171.7 74 214.3 78 257.2 81.2C300 84.3 343 86.7 385.8 89.3C428.7 92 471.3 95 514.2 93C557 91 600 84 642.8 79.7C685.7 75.3 728.3 73.7 771.2 81C814 88.3 857 104.7 878.5 112.8L900 121L900 0L878.5 0C857 0 814 0 771.2 0C728.3 0 685.7 0 642.8 0C600 0 557 0 514.2 0C471.3 0 428.7 0 385.8 0C343 0 300 0 257.2 0C214.3 0 171.7 0 128.8 0C86 0 43 0 21.5 0L0 0Z" fill="#e34c67"></path><path d="M0 44L21.5 50.7C43 57.3 86 70.7 128.8 75C171.7 79.3 214.3 74.7 257.2 74.7C300 74.7 343 79.3 385.8 75.2C428.7 71 471.3 58 514.2 52.2C557 46.3 600 47.7 642.8 54.5C685.7 61.3 728.3 73.7 771.2 78.2C814 82.7 857 79.3 878.5 77.7L900 76L900 0L878.5 0C857 0 814 0 771.2 0C728.3 0 685.7 0 642.8 0C600 0 557 0 514.2 0C471.3 0 428.7 0 385.8 0C343 0 300 0 257.2 0C214.3 0 171.7 0 128.8 0C86 0 43 0 21.5 0L0 0Z" fill="#d53867"></path><path d="M0 39L21.5 38.2C43 37.3 86 35.7 128.8 34C171.7 32.3 214.3 30.7 257.2 33.2C300 35.7 343 42.3 385.8 46.3C428.7 50.3 471.3 51.7 514.2 47.2C557 42.7 600 32.3 642.8 27.5C685.7 22.7 728.3 23.3 771.2 27.2C814 31 857 38 878.5 41.5L900 45L900 0L878.5 0C857 0 814 0 771.2 0C728.3 0 685.7 0 642.8 0C600 0 557 0 514.2 0C471.3 0 428.7 0 385.8 0C343 0 300 0 257.2 0C214.3 0 171.7 0 128.8 0C86 0 43 0 21.5 0L0 0Z" fill="#c62368"></path></svg>