<svg id="visual" viewBox="0 0 900 100" width="900" height="100" xmlns="http://www.w3.org/2000/svg" xmlns:xlink="http://www.w3.org/1999/xlink" version="1.1"><rect x="0" y="0" width="900" height="100" fill="#001220"></rect><path d="M0 64L21.5 66.7C43 69.3 86 74.7 128.8 76.5C171.7 78.3 214.3 76.7 257.2 77.3C300 78 343 81 385.8 79.2C428.7 77.3 471.3 70.7 514.2 69.5C557 68.3 600 72.7 642.8 76C685.7 79.3 728.3 81.7 771.2 83C814 84.3 857 84.7 878.5 84.8L900 85L900 101L878.5 101C857 101 814 101 771.2 101C728.3 101 685.7 101 642.8 101C600 101 557 101 514.2 101C471.3 101 428.7 101 385.8 101C343 101 300 101 257.2 101C214.3 101 171.7 101 128.8 101C86 101 43 101 21.5 101L0 101Z" fill="#5E00A0" stroke-linecap="round" stroke-linejoin="miter"></path></svg>