<svg id="visual" viewBox="0 0 900 450" width="900" height="450" xmlns="http://www.w3.org/2000/svg" xmlns:xlink="http://www.w3.org/1999/xlink" version="1.1"><rect x="0" y="0" width="900" height="450" fill="#C62368"></rect><path d="M0 107L21.5 102.7C43 98.3 86 89.7 128.8 85.5C171.7 81.3 214.3 81.7 257.2 84C300 86.3 343 90.7 385.8 97.8C428.7 105 471.3 115 514.2 120.5C557 126 600 127 642.8 120.8C685.7 114.7 728.3 101.3 771.2 100.3C814 99.3 857 110.7 878.5 116.3L900 122L900 0L878.5 0C857 0 814 0 771.2 0C728.3 0 685.7 0 642.8 0C600 0 557 0 514.2 0C471.3 0 428.7 0 385.8 0C343 0 300 0 257.2 0C214.3 0 171.7 0 128.8 0C86 0 43 0 21.5 0L0 0Z" fill="#001220" stroke-linecap="round" stroke-linejoin="miter"></path></svg>