<svg id="visual" viewBox="0 0 900 450" width="900" height="450" xmlns="http://www.w3.org/2000/svg" xmlns:xlink="http://www.w3.org/1999/xlink" version="1.1"><rect x="0" y="0" width="900" height="450" fill="#001220"></rect><path d="M0 277L21.5 285.2C43 293.3 86 309.7 128.8 318.5C171.7 327.3 214.3 328.7 257.2 329.5C300 330.3 343 330.7 385.8 322.3C428.7 314 471.3 297 514.2 288.2C557 279.3 600 278.7 642.8 287.3C685.7 296 728.3 314 771.2 320.8C814 327.7 857 323.3 878.5 321.2L900 319L900 451L878.5 451C857 451 814 451 771.2 451C728.3 451 685.7 451 642.8 451C600 451 557 451 514.2 451C471.3 451 428.7 451 385.8 451C343 451 300 451 257.2 451C214.3 451 171.7 451 128.8 451C86 451 43 451 21.5 451L0 451Z" fill="#421a92"></path><path d="M0 311L21.5 318.8C43 326.7 86 342.3 128.8 350C171.7 357.7 214.3 357.3 257.2 357C300 356.7 343 356.3 385.8 348.7C428.7 341 471.3 326 514.2 319.5C557 313 600 315 642.8 315C685.7 315 728.3 313 771.2 311.5C814 310 857 309 878.5 308.5L900 308L900 451L878.5 451C857 451 814 451 771.2 451C728.3 451 685.7 451 642.8 451C600 451 557 451 514.2 451C471.3 451 428.7 451 385.8 451C343 451 300 451 257.2 451C214.3 451 171.7 451 128.8 451C86 451 43 451 21.5 451L0 451Z" fill="#8e0e8a"></path><path d="M0 330L21.5 335.2C43 340.3 86 350.7 128.8 355C171.7 359.3 214.3 357.7 257.2 352.2C300 346.7 343 337.3 385.8 335.7C428.7 334 471.3 340 514.2 340.8C557 341.7 600 337.3 642.8 341C685.7 344.7 728.3 356.3 771.2 364.3C814 372.3 857 376.7 878.5 378.8L900 381L900 451L878.5 451C857 451 814 451 771.2 451C728.3 451 685.7 451 642.8 451C600 451 557 451 514.2 451C471.3 451 428.7 451 385.8 451C343 451 300 451 257.2 451C214.3 451 171.7 451 128.8 451C86 451 43 451 21.5 451L0 451Z" fill="#c0227d"></path><path d="M0 396L21.5 394.2C43 392.3 86 388.7 128.8 385.5C171.7 382.3 214.3 379.7 257.2 380.2C300 380.7 343 384.3 385.8 385.5C428.7 386.7 471.3 385.3 514.2 388.3C557 391.3 600 398.7 642.8 396.8C685.7 395 728.3 384 771.2 382C814 380 857 387 878.5 390.5L900 394L900 451L878.5 451C857 451 814 451 771.2 451C728.3 451 685.7 451 642.8 451C600 451 557 451 514.2 451C471.3 451 428.7 451 385.8 451C343 451 300 451 257.2 451C214.3 451 171.7 451 128.8 451C86 451 43 451 21.5 451L0 451Z" fill="#e34871"></path><path d="M0 408L21.5 409.5C43 411 86 414 128.8 415C171.7 416 214.3 415 257.2 416.3C300 417.7 343 421.3 385.8 418.7C428.7 416 471.3 407 514.2 407.2C557 407.3 600 416.7 642.8 421.3C685.7 426 728.3 426 771.2 422C814 418 857 410 878.5 406L900 402L900 451L878.5 451C857 451 814 451 771.2 451C728.3 451 685.7 451 642.8 451C600 451 557 451 514.2 451C471.3 451 428.7 451 385.8 451C343 451 300 451 257.2 451C214.3 451 171.7 451 128.8 451C86 451 43 451 21.5 451L0 451Z" fill="#fa7268"></path></svg>