<svg id="visual" viewBox="0 0 900 450" width="900" height="450" xmlns="http://www.w3.org/2000/svg" xmlns:xlink="http://www.w3.org/1999/xlink" version="1.1"><path d="M0 317L16.7 318.2C33.3 319.3 66.7 321.7 100 319.3C133.3 317 166.7 310 200 311.5C233.3 313 266.7 323 300 327.8C333.3 332.7 366.7 332.3 400 332.2C433.3 332 466.7 332 500 337.2C533.3 342.3 566.7 352.7 600 351.3C633.3 350 666.7 337 700 329.5C733.3 322 766.7 320 800 319C833.3 318 866.7 318 883.3 318L900 318L900 451L883.3 451C866.7 451 833.3 451 800 451C766.7 451 733.3 451 700 451C666.7 451 633.3 451 600 451C566.7 451 533.3 451 500 451C466.7 451 433.3 451 400 451C366.7 451 333.3 451 300 451C266.7 451 233.3 451 200 451C166.7 451 133.3 451 100 451C66.7 451 33.3 451 16.7 451L0 451Z" fill="#421a92"></path><path d="M0 340L16.7 341.5C33.3 343 66.7 346 100 351.5C133.3 357 166.7 365 200 362.3C233.3 359.7 266.7 346.3 300 345.5C333.3 344.7 366.7 356.3 400 364.8C433.3 373.3 466.7 378.7 500 376.7C533.3 374.7 566.7 365.3 600 359.8C633.3 354.3 666.7 352.7 700 354.7C733.3 356.7 766.7 362.3 800 365.5C833.3 368.7 866.7 369.3 883.3 369.7L900 370L900 451L883.3 451C866.7 451 833.3 451 800 451C766.7 451 733.3 451 700 451C666.7 451 633.3 451 600 451C566.7 451 533.3 451 500 451C466.7 451 433.3 451 400 451C366.7 451 333.3 451 300 451C266.7 451 233.3 451 200 451C166.7 451 133.3 451 100 451C66.7 451 33.3 451 16.7 451L0 451Z" fill="#a11086"></path><path d="M0 374L16.7 376.3C33.3 378.7 66.7 383.3 100 386.2C133.3 389 166.7 390 200 389.2C233.3 388.3 266.7 385.7 300 387C333.3 388.3 366.7 393.7 400 395.8C433.3 398 466.7 397 500 395.8C533.3 394.7 566.7 393.3 600 391.3C633.3 389.3 666.7 386.7 700 385C733.3 383.3 766.7 382.7 800 379.5C833.3 376.3 866.7 370.7 883.3 367.8L900 365L900 451L883.3 451C866.7 451 833.3 451 800 451C766.7 451 733.3 451 700 451C666.7 451 633.3 451 600 451C566.7 451 533.3 451 500 451C466.7 451 433.3 451 400 451C366.7 451 333.3 451 300 451C266.7 451 233.3 451 200 451C166.7 451 133.3 451 100 451C66.7 451 33.3 451 16.7 451L0 451Z" fill="#d93b74"></path><path d="M0 410L16.7 413C33.3 416 66.7 422 100 424.3C133.3 426.7 166.7 425.3 200 420.8C233.3 416.3 266.7 408.7 300 407C333.3 405.3 366.7 409.7 400 409.5C433.3 409.3 466.7 404.7 500 403.5C533.3 402.3 566.7 404.7 600 406.3C633.3 408 666.7 409 700 407.7C733.3 406.3 766.7 402.7 800 403.8C833.3 405 866.7 411 883.3 414L900 417L900 451L883.3 451C866.7 451 833.3 451 800 451C766.7 451 733.3 451 700 451C666.7 451 633.3 451 600 451C566.7 451 533.3 451 500 451C466.7 451 433.3 451 400 451C366.7 451 333.3 451 300 451C266.7 451 233.3 451 200 451C166.7 451 133.3 451 100 451C66.7 451 33.3 451 16.7 451L0 451Z" fill="#fa7268"></path></svg>