<svg id="visual" viewBox="0 0 900 450" width="900" height="450" xmlns="http://www.w3.org/2000/svg" xmlns:xlink="http://www.w3.org/1999/xlink" version="1.1"><rect x="0" y="0" width="900" height="450" fill="#5E00A0"></rect><path d="M0 91L25 83.2C50 75.3 100 59.7 150 61C200 62.3 250 80.7 300 82.5C350 84.3 400 69.7 450 69.5C500 69.3 550 83.7 600 83C650 82.3 700 66.7 750 59.2C800 51.7 850 52.3 875 52.7L900 53L900 0L875 0C850 0 800 0 750 0C700 0 650 0 600 0C550 0 500 0 450 0C400 0 350 0 300 0C250 0 200 0 150 0C100 0 50 0 25 0L0 0Z" fill="#001220" stroke-linecap="round" stroke-linejoin="miter"></path></svg>