<svg id="visual" viewBox="0 0 900 450" width="900" height="450" xmlns="http://www.w3.org/2000/svg" xmlns:xlink="http://www.w3.org/1999/xlink" version="1.1"><rect x="0" y="0" width="900" height="450" fill="#001220"></rect><path d="M0 102L21.5 111.8C43 121.7 86 141.3 128.8 148.2C171.7 155 214.3 149 257.2 140.2C300 131.3 343 119.7 385.8 118.3C428.7 117 471.3 126 514.2 121.3C557 116.7 600 98.3 642.8 95.8C685.7 93.3 728.3 106.7 771.2 115.8C814 125 857 130 878.5 132.5L900 135L900 0L878.5 0C857 0 814 0 771.2 0C728.3 0 685.7 0 642.8 0C600 0 557 0 514.2 0C471.3 0 428.7 0 385.8 0C343 0 300 0 257.2 0C214.3 0 171.7 0 128.8 0C86 0 43 0 21.5 0L0 0Z" fill="#FA7268" stroke-linecap="round" stroke-linejoin="miter"></path></svg>